<svg xmlns="http://www.w3.org/2000/svg" width="1200" height="760" viewBox="0 0 1200 760">
  <rect width="100%" height="100%" fill="white"/>
  <style>
    text { font-family: Arial, Helvetica, sans-serif; fill: #1f2933; }
    .title { font-size: 24px; font-weight: 700; }
    .subtitle { font-size: 14px; fill: #64748b; }
    .axis { font-size: 12px; fill: #64748b; }
    .label { font-size: 13px; }
    .small { font-size: 11px; fill: #64748b; }
    .caption { font-size: 12px; fill: #64748b; }
  </style>
<text x="52.0" y="48.0" class="title" text-anchor="start">Global distribution of quantum-technology publications</text>
<text x="52.0" y="74.0" class="subtitle" text-anchor="start">OpenAlex concept C190463098, country-affiliation counts, 2015-2025; Mexico shown for comparison.</text>
<line x1="270.0" y1="100.0" x2="270.0" y2="664.0" stroke="#d8dee9" stroke-width="0.8"/>
<text x="270.0" y="90.0" class="axis" text-anchor="middle">0</text>
<line x1="420.9" y1="100.0" x2="420.9" y2="664.0" stroke="#d8dee9" stroke-width="0.8"/>
<text x="420.9" y="90.0" class="axis" text-anchor="middle">500</text>
<line x1="571.9" y1="100.0" x2="571.9" y2="664.0" stroke="#d8dee9" stroke-width="0.8"/>
<text x="571.9" y="90.0" class="axis" text-anchor="middle">1,000</text>
<line x1="722.8" y1="100.0" x2="722.8" y2="664.0" stroke="#d8dee9" stroke-width="0.8"/>
<text x="722.8" y="90.0" class="axis" text-anchor="middle">1,500</text>
<line x1="873.7" y1="100.0" x2="873.7" y2="664.0" stroke="#d8dee9" stroke-width="0.8"/>
<text x="873.7" y="90.0" class="axis" text-anchor="middle">2,000</text>
<line x1="1024.6" y1="100.0" x2="1024.6" y2="664.0" stroke="#d8dee9" stroke-width="0.8"/>
<text x="1024.6" y="90.0" class="axis" text-anchor="middle">2,500</text>
<text x="252.0" y="143.0" class="label" text-anchor="end">United States</text>
<rect x="270.0" y="120.0" width="780.0" height="34.0" fill="#2f6f9f" stroke="none" rx="3"/>
<text x="1060.0" y="143.0" class="label" text-anchor="start">2,584</text>
<text x="252.0" y="193.0" class="label" text-anchor="end">China</text>
<rect x="270.0" y="170.0" width="495.3" height="34.0" fill="#2f6f9f" stroke="none" rx="3"/>
<text x="775.3" y="193.0" class="label" text-anchor="start">1,641</text>
<text x="252.0" y="243.0" class="label" text-anchor="end">Germany</text>
<rect x="270.0" y="220.0" width="369.8" height="34.0" fill="#2f6f9f" stroke="none" rx="3"/>
<text x="649.8" y="243.0" class="label" text-anchor="start">1,225</text>
<text x="252.0" y="293.0" class="label" text-anchor="end">United Kingdom</text>
<rect x="270.0" y="270.0" width="332.6" height="34.0" fill="#2f6f9f" stroke="none" rx="3"/>
<text x="612.6" y="293.0" class="label" text-anchor="start">1,102</text>
<text x="252.0" y="343.0" class="label" text-anchor="end">France</text>
<rect x="270.0" y="320.0" width="183.2" height="34.0" fill="#2f6f9f" stroke="none" rx="3"/>
<text x="463.2" y="343.0" class="label" text-anchor="start">607</text>
<text x="252.0" y="393.0" class="label" text-anchor="end">Italy</text>
<rect x="270.0" y="370.0" width="166.6" height="34.0" fill="#2f6f9f" stroke="none" rx="3"/>
<text x="446.6" y="393.0" class="label" text-anchor="start">552</text>
<text x="252.0" y="443.0" class="label" text-anchor="end">India</text>
<rect x="270.0" y="420.0" width="166.3" height="34.0" fill="#2f6f9f" stroke="none" rx="3"/>
<text x="446.3" y="443.0" class="label" text-anchor="start">551</text>
<text x="252.0" y="493.0" class="label" text-anchor="end">Japan</text>
<rect x="270.0" y="470.0" width="156.7" height="34.0" fill="#2f6f9f" stroke="none" rx="3"/>
<text x="436.7" y="493.0" class="label" text-anchor="start">519</text>
<text x="252.0" y="543.0" class="label" text-anchor="end">Canada</text>
<rect x="270.0" y="520.0" width="139.8" height="34.0" fill="#2f6f9f" stroke="none" rx="3"/>
<text x="419.8" y="543.0" class="label" text-anchor="start">463</text>
<text x="252.0" y="593.0" class="label" text-anchor="end">Australia</text>
<rect x="270.0" y="570.0" width="132.2" height="34.0" fill="#2f6f9f" stroke="none" rx="3"/>
<text x="412.2" y="593.0" class="label" text-anchor="start">438</text>
<line x1="255.0" y1="612.0" x2="1050.0" y2="612.0" stroke="#9aa6b2" stroke-width="1.2"/>
<text x="252.0" y="643.0" class="label" text-anchor="end">Mexico</text>
<rect x="270.0" y="620.0" width="16.9" height="34.0" fill="#b4534a" stroke="none" rx="3"/>
<text x="296.9" y="643.0" class="label" text-anchor="start">56</text>
<text x="52.0" y="716.0" class="caption" text-anchor="start">Source: OpenAlex Works API extraction. Counts are bibliometric adoption proxies, not direct deployment measures.</text>
</svg>
