<svg xmlns="http://www.w3.org/2000/svg" width="1200" height="720" viewBox="0 0 1200 720">
  <rect width="100%" height="100%" fill="white"/>
  <style>
    text { font-family: Arial, Helvetica, sans-serif; fill: #1f2933; }
    .title { font-size: 24px; font-weight: 700; }
    .subtitle { font-size: 14px; fill: #64748b; }
    .axis { font-size: 12px; fill: #64748b; }
    .label { font-size: 13px; }
    .small { font-size: 11px; fill: #64748b; }
    .caption { font-size: 12px; fill: #64748b; }
  </style>
<text x="52.0" y="48.0" class="title" text-anchor="start">Publication trajectory of quantum-technology and PQC literatures</text>
<text x="52.0" y="74.0" class="subtitle" text-anchor="start">Indexed OpenAlex year counts, 2015=100. The index enables comparison across differently sized literatures.</text>
<line x1="95.0" y1="585.0" x2="1075.0" y2="585.0" stroke="#d8dee9" stroke-width="0.8"/>
<text x="83.0" y="589.0" class="axis" text-anchor="end">0</text>
<line x1="95.0" y1="517.9" x2="1075.0" y2="517.9" stroke="#d8dee9" stroke-width="0.8"/>
<text x="83.0" y="521.9" class="axis" text-anchor="end">200</text>
<line x1="95.0" y1="450.7" x2="1075.0" y2="450.7" stroke="#d8dee9" stroke-width="0.8"/>
<text x="83.0" y="454.7" class="axis" text-anchor="end">400</text>
<line x1="95.0" y1="383.6" x2="1075.0" y2="383.6" stroke="#d8dee9" stroke-width="0.8"/>
<text x="83.0" y="387.6" class="axis" text-anchor="end">600</text>
<line x1="95.0" y1="316.4" x2="1075.0" y2="316.4" stroke="#d8dee9" stroke-width="0.8"/>
<text x="83.0" y="320.4" class="axis" text-anchor="end">800</text>
<line x1="95.0" y1="249.3" x2="1075.0" y2="249.3" stroke="#d8dee9" stroke-width="0.8"/>
<text x="83.0" y="253.3" class="axis" text-anchor="end">1000</text>
<line x1="95.0" y1="182.1" x2="1075.0" y2="182.1" stroke="#d8dee9" stroke-width="0.8"/>
<text x="83.0" y="186.1" class="axis" text-anchor="end">1200</text>
<line x1="95.0" y1="115.0" x2="1075.0" y2="115.0" stroke="#d8dee9" stroke-width="0.8"/>
<text x="83.0" y="119.0" class="axis" text-anchor="end">1400</text>
<line x1="95.0" y1="585.0" x2="95.0" y2="591.0" stroke="#64748b" stroke-width="1"/>
<text x="95.0" y="610.0" class="axis" text-anchor="middle">2015</text>
<line x1="193.0" y1="585.0" x2="193.0" y2="591.0" stroke="#64748b" stroke-width="1"/>
<text x="193.0" y="610.0" class="axis" text-anchor="middle">2016</text>
<line x1="291.0" y1="585.0" x2="291.0" y2="591.0" stroke="#64748b" stroke-width="1"/>
<text x="291.0" y="610.0" class="axis" text-anchor="middle">2017</text>
<line x1="389.0" y1="585.0" x2="389.0" y2="591.0" stroke="#64748b" stroke-width="1"/>
<text x="389.0" y="610.0" class="axis" text-anchor="middle">2018</text>
<line x1="487.0" y1="585.0" x2="487.0" y2="591.0" stroke="#64748b" stroke-width="1"/>
<text x="487.0" y="610.0" class="axis" text-anchor="middle">2019</text>
<line x1="585.0" y1="585.0" x2="585.0" y2="591.0" stroke="#64748b" stroke-width="1"/>
<text x="585.0" y="610.0" class="axis" text-anchor="middle">2020</text>
<line x1="683.0" y1="585.0" x2="683.0" y2="591.0" stroke="#64748b" stroke-width="1"/>
<text x="683.0" y="610.0" class="axis" text-anchor="middle">2021</text>
<line x1="781.0" y1="585.0" x2="781.0" y2="591.0" stroke="#64748b" stroke-width="1"/>
<text x="781.0" y="610.0" class="axis" text-anchor="middle">2022</text>
<line x1="879.0" y1="585.0" x2="879.0" y2="591.0" stroke="#64748b" stroke-width="1"/>
<text x="879.0" y="610.0" class="axis" text-anchor="middle">2023</text>
<line x1="977.0" y1="585.0" x2="977.0" y2="591.0" stroke="#64748b" stroke-width="1"/>
<text x="977.0" y="610.0" class="axis" text-anchor="middle">2024</text>
<line x1="1075.0" y1="585.0" x2="1075.0" y2="591.0" stroke="#64748b" stroke-width="1"/>
<text x="1075.0" y="610.0" class="axis" text-anchor="middle">2025</text>
<line x1="95.0" y1="115.0" x2="95.0" y2="585.0" stroke="#64748b" stroke-width="1.2"/>
<line x1="95.0" y1="585.0" x2="1075.0" y2="585.0" stroke="#64748b" stroke-width="1.2"/>
<path d="M95.0,551.4 L193.0,545.7 L291.0,538.5 L389.0,534.8 L487.0,523.4 L585.0,515.5 L683.0,501.3 L781.0,507.8 L879.0,502.3 L977.0,540.8 L1075.0,167.8" fill="none" stroke="#2f6f9f" stroke-width="3.2" stroke-linejoin="round" stroke-linecap="round"/>
<path d="M95.0,551.4 L193.0,535.1 L291.0,523.0 L389.0,507.5 L487.0,494.6 L585.0,480.8 L683.0,480.0 L781.0,460.2 L879.0,455.9 L977.0,482.6 L1075.0,295.8" fill="none" stroke="#2a9d8f" stroke-width="3.2" stroke-linejoin="round" stroke-linecap="round"/>
<circle cx="95.0" cy="551.4" r="4.5" fill="#2f6f9f"/>
<circle cx="193.0" cy="545.7" r="4.5" fill="#2f6f9f"/>
<circle cx="291.0" cy="538.5" r="4.5" fill="#2f6f9f"/>
<circle cx="389.0" cy="534.8" r="4.5" fill="#2f6f9f"/>
<circle cx="487.0" cy="523.4" r="4.5" fill="#2f6f9f"/>
<circle cx="585.0" cy="515.5" r="4.5" fill="#2f6f9f"/>
<circle cx="683.0" cy="501.3" r="4.5" fill="#2f6f9f"/>
<circle cx="781.0" cy="507.8" r="4.5" fill="#2f6f9f"/>
<circle cx="879.0" cy="502.3" r="4.5" fill="#2f6f9f"/>
<circle cx="977.0" cy="540.8" r="4.5" fill="#2f6f9f"/>
<circle cx="1075.0" cy="167.8" r="4.5" fill="#2f6f9f"/>
<circle cx="95.0" cy="551.4" r="4.5" fill="#2a9d8f"/>
<circle cx="193.0" cy="535.1" r="4.5" fill="#2a9d8f"/>
<circle cx="291.0" cy="523.0" r="4.5" fill="#2a9d8f"/>
<circle cx="389.0" cy="507.5" r="4.5" fill="#2a9d8f"/>
<circle cx="487.0" cy="494.6" r="4.5" fill="#2a9d8f"/>
<circle cx="585.0" cy="480.8" r="4.5" fill="#2a9d8f"/>
<circle cx="683.0" cy="480.0" r="4.5" fill="#2a9d8f"/>
<circle cx="781.0" cy="460.2" r="4.5" fill="#2a9d8f"/>
<circle cx="879.0" cy="455.9" r="4.5" fill="#2a9d8f"/>
<circle cx="977.0" cy="482.6" r="4.5" fill="#2a9d8f"/>
<circle cx="1075.0" cy="295.8" r="4.5" fill="#2a9d8f"/>
<rect x="790.0" y="112.0" width="18.0" height="18.0" fill="#2f6f9f" stroke="none" rx="2"/>
<text x="818.0" y="127.0" class="label" text-anchor="start">Quantum technology</text>
<rect x="790.0" y="142.0" width="18.0" height="18.0" fill="#2a9d8f" stroke="none" rx="2"/>
<text x="818.0" y="157.0" class="label" text-anchor="start">Post-quantum cryptography</text>
<text x="50.0" y="350.0" class="axis" text-anchor="start">Index, 2015=100</text>
<text x="52.0" y="682.0" class="caption" text-anchor="start">Source: OpenAlex Works API extraction. The 2025 quantum-technology spike is interpreted as an indexing/query signal requiring cautious interpretation.</text>
</svg>
