<svg xmlns="http://www.w3.org/2000/svg" width="1200" height="740" viewBox="0 0 1200 740">
  <rect width="100%" height="100%" fill="white"/>
  <style>
    text { font-family: Arial, Helvetica, sans-serif; fill: #1f2933; }
    .title { font-size: 24px; font-weight: 700; }
    .subtitle { font-size: 14px; fill: #64748b; }
    .axis { font-size: 12px; fill: #64748b; }
    .label { font-size: 13px; }
    .small { font-size: 11px; fill: #64748b; }
    .caption { font-size: 12px; fill: #64748b; }
  </style>
<text x="52.0" y="48.0" class="title" text-anchor="start">Sequencing of national quantum capabilities</text>
<text x="52.0" y="74.0" class="subtitle" text-anchor="start">Darker cells indicate higher strategic priority in each phase of a 2025-2035 national roadmap.</text>
<text x="417.5" y="110.0" class="label" text-anchor="middle" font-weight="700">2025-2027</text>
<text x="417.5" y="130.0" class="small" text-anchor="middle">Preparation</text>
<text x="662.5" y="110.0" class="label" text-anchor="middle" font-weight="700">2027-2030</text>
<text x="662.5" y="130.0" class="small" text-anchor="middle">Testbeds</text>
<text x="907.5" y="110.0" class="label" text-anchor="middle" font-weight="700">2030-2035</text>
<text x="907.5" y="130.0" class="small" text-anchor="middle">Scaling</text>
<text x="271.0" y="194.0" class="label" text-anchor="end" font-weight="700">PQC</text>
<rect x="295.0" y="150.0" width="237.0" height="64.0" fill="#2f6f9f" stroke="#ffffff" rx="4"/>
<text x="413.5" y="191.0" class="label" text-anchor="middle" font-weight="700">3</text>
<rect x="540.0" y="150.0" width="237.0" height="64.0" fill="#2f6f9f" stroke="#ffffff" rx="4"/>
<text x="658.5" y="191.0" class="label" text-anchor="middle" font-weight="700">3</text>
<rect x="785.0" y="150.0" width="237.0" height="64.0" fill="#2f6f9f" stroke="#ffffff" rx="4"/>
<text x="903.5" y="191.0" class="label" text-anchor="middle" font-weight="700">3</text>
<text x="271.0" y="266.0" class="label" text-anchor="end" font-weight="700">Sensing</text>
<rect x="295.0" y="222.0" width="237.0" height="64.0" fill="#73b6c8" stroke="#ffffff" rx="4"/>
<text x="413.5" y="263.0" class="label" text-anchor="middle" font-weight="700">2</text>
<rect x="540.0" y="222.0" width="237.0" height="64.0" fill="#2f6f9f" stroke="#ffffff" rx="4"/>
<text x="658.5" y="263.0" class="label" text-anchor="middle" font-weight="700">3</text>
<rect x="785.0" y="222.0" width="237.0" height="64.0" fill="#2f6f9f" stroke="#ffffff" rx="4"/>
<text x="903.5" y="263.0" class="label" text-anchor="middle" font-weight="700">3</text>
<text x="271.0" y="338.0" class="label" text-anchor="end" font-weight="700">QCaaS</text>
<rect x="295.0" y="294.0" width="237.0" height="64.0" fill="#73b6c8" stroke="#ffffff" rx="4"/>
<text x="413.5" y="335.0" class="label" text-anchor="middle" font-weight="700">2</text>
<rect x="540.0" y="294.0" width="237.0" height="64.0" fill="#2f6f9f" stroke="#ffffff" rx="4"/>
<text x="658.5" y="335.0" class="label" text-anchor="middle" font-weight="700">3</text>
<rect x="785.0" y="294.0" width="237.0" height="64.0" fill="#73b6c8" stroke="#ffffff" rx="4"/>
<text x="903.5" y="335.0" class="label" text-anchor="middle" font-weight="700">2</text>
<text x="271.0" y="410.0" class="label" text-anchor="end" font-weight="700">Communication</text>
<rect x="295.0" y="366.0" width="237.0" height="64.0" fill="#cfe7ef" stroke="#ffffff" rx="4"/>
<text x="413.5" y="407.0" class="label" text-anchor="middle" font-weight="700">1</text>
<rect x="540.0" y="366.0" width="237.0" height="64.0" fill="#73b6c8" stroke="#ffffff" rx="4"/>
<text x="658.5" y="407.0" class="label" text-anchor="middle" font-weight="700">2</text>
<rect x="785.0" y="366.0" width="237.0" height="64.0" fill="#2f6f9f" stroke="#ffffff" rx="4"/>
<text x="903.5" y="407.0" class="label" text-anchor="middle" font-weight="700">3</text>
<text x="271.0" y="482.0" class="label" text-anchor="end" font-weight="700">Standards</text>
<rect x="295.0" y="438.0" width="237.0" height="64.0" fill="#73b6c8" stroke="#ffffff" rx="4"/>
<text x="413.5" y="479.0" class="label" text-anchor="middle" font-weight="700">2</text>
<rect x="540.0" y="438.0" width="237.0" height="64.0" fill="#2f6f9f" stroke="#ffffff" rx="4"/>
<text x="658.5" y="479.0" class="label" text-anchor="middle" font-weight="700">3</text>
<rect x="785.0" y="438.0" width="237.0" height="64.0" fill="#2f6f9f" stroke="#ffffff" rx="4"/>
<text x="903.5" y="479.0" class="label" text-anchor="middle" font-weight="700">3</text>
<text x="271.0" y="554.0" class="label" text-anchor="end" font-weight="700">Workforce</text>
<rect x="295.0" y="510.0" width="237.0" height="64.0" fill="#2f6f9f" stroke="#ffffff" rx="4"/>
<text x="413.5" y="551.0" class="label" text-anchor="middle" font-weight="700">3</text>
<rect x="540.0" y="510.0" width="237.0" height="64.0" fill="#2f6f9f" stroke="#ffffff" rx="4"/>
<text x="658.5" y="551.0" class="label" text-anchor="middle" font-weight="700">3</text>
<rect x="785.0" y="510.0" width="237.0" height="64.0" fill="#2f6f9f" stroke="#ffffff" rx="4"/>
<text x="903.5" y="551.0" class="label" text-anchor="middle" font-weight="700">3</text>
<text x="271.0" y="626.0" class="label" text-anchor="end" font-weight="700">Frontier R&amp;D</text>
<rect x="295.0" y="582.0" width="237.0" height="64.0" fill="#73b6c8" stroke="#ffffff" rx="4"/>
<text x="413.5" y="623.0" class="label" text-anchor="middle" font-weight="700">2</text>
<rect x="540.0" y="582.0" width="237.0" height="64.0" fill="#73b6c8" stroke="#ffffff" rx="4"/>
<text x="658.5" y="623.0" class="label" text-anchor="middle" font-weight="700">2</text>
<rect x="785.0" y="582.0" width="237.0" height="64.0" fill="#2f6f9f" stroke="#ffffff" rx="4"/>
<text x="903.5" y="623.0" class="label" text-anchor="middle" font-weight="700">3</text>
<rect x="292.0" y="690.0" width="34.0" height="18.0" fill="#f1f5f9" stroke="#ffffff" rx="2"/>
<text x="334.0" y="704.0" class="small" text-anchor="start">not central</text>
<rect x="452.0" y="690.0" width="34.0" height="18.0" fill="#cfe7ef" stroke="#ffffff" rx="2"/>
<text x="494.0" y="704.0" class="small" text-anchor="start">watch</text>
<rect x="612.0" y="690.0" width="34.0" height="18.0" fill="#73b6c8" stroke="#ffffff" rx="2"/>
<text x="654.0" y="704.0" class="small" text-anchor="start">build</text>
<rect x="772.0" y="690.0" width="34.0" height="18.0" fill="#2f6f9f" stroke="#ffffff" rx="2"/>
<text x="814.0" y="704.0" class="small" text-anchor="start">priority</text>
<text x="52.0" y="682.0" class="caption" text-anchor="start">Source: Author synthesis from adoption literature, OECD readiness evidence, NIST PQC standards, and OpenAlex bibliometrics.</text>
</svg>
